<?xml version="1.0" encoding="UTF-8" standalone="no"?>
<!-- Created with Inkscape (http://www.inkscape.org/) -->

<svg
   width="63.743076mm"
   height="24.187527mm"
   viewBox="0 0 63.743076 24.187527"
   version="1.1"
   id="svg1"
   xmlns="http://www.w3.org/2000/svg"
   xmlns:svg="http://www.w3.org/2000/svg">
  <defs
     id="defs1" />
  <g
     id="layer1"
     transform="translate(-49.052816,-104.02013)">
    <rect
       style="fill:#333333;fill-opacity:1;stroke:none;stroke-width:1.14191;stroke-linejoin:bevel;stroke-dasharray:none"
       id="rect4"
       width="63.425247"
       height="18.915586"
       x="49.370647"
       y="106.77367"
       ry="9.4577932" />
    <path
       id="rect4-9"
       style="fill:#ffcc00;fill-opacity:1;stroke:none;stroke-width:1.21505;stroke-linejoin:bevel;stroke-dasharray:none"
       d="m 85.716732,110.07028 v 11.67423 h 2.670638 v -4.47983 h 1.432988 l 3.007052,4.47983 h 2.971911 l -3.715019,-5.08496 c 0.412739,-0.1744 0.796023,-0.39774 1.149801,-0.67025 0.365568,-0.28342 0.654867,-0.62146 0.867131,-1.01389 0.224069,-0.40331 0.335896,-0.87198 0.335896,-1.40611 0,-1.17728 -0.412689,-2.05466 -1.238167,-2.6324 -0.813685,-0.57773 -2.081155,-0.86662 -3.802869,-0.86662 z m 11.67474,0 v 11.67423 h 2.387968 v -5.49372 c -0.02363,-0.55593 -0.05347,-1.11166 -0.08888,-1.6676 -0.02364,-0.55594 -0.04716,-1.11219 -0.0708,-1.66812 h 0.0708 l 5.50148,8.82944 h 2.35644 c 0.45963,-0.85392 0.80434,-1.77709 1.03973,-2.74402 v -5.53816 c -0.29675,-1.21898 -0.78264,-2.35958 -1.42885,-3.39205 h -0.97669 v 5.52628 c 0.0234,0.53413 0.0473,1.06839 0.0708,1.60249 0.0237,0.53414 0.0408,1.07397 0.0527,1.61902 h -0.0527 l -5.48391,-8.74779 z m -9.004102,2.02727 h 0.813904 c 0.872652,0 1.509533,0.11986 1.910478,0.35967 0.41274,0.22895 0.619084,0.62128 0.619084,1.17719 0,0.53414 -0.194792,0.93775 -0.583944,1.21026 -0.377363,0.27247 -1.007951,0.40876 -1.892391,0.40876 H 88.38737 Z" />
    <g
       id="g5">
      <path
         d="m 49.052815,116.38583 c 0,14.8136 17.620546,16.79213 34.262766,-0.30809 -16.7024,-16.702398 -34.262766,-15.53727 -34.262766,0.30809 z"
         style="fill:#ffcc00;stroke-width:1.262"
         id="path4-3-2" />
      <circle
         style="fill:#333333;fill-opacity:1;stroke:none;stroke-width:1.262;stroke-linejoin:bevel;stroke-dasharray:none"
         id="path5-6"
         cx="-116.11389"
         cy="60.661346"
         r="8.301302"
         transform="rotate(-90)" />
    </g>
    <path
       style="font-weight:bold;font-size:10.0475px;font-family:'Noto Serif Bengali';-inkscape-font-specification:'Noto Serif Bengali Bold';fill:#ffcc00;fill-opacity:1;stroke:none;stroke-width:0.619"
       d="m 59.187056,119.4306 h -1.578017 v -5.68013 h -2.027385 v -1.21718 h 5.632788 v 1.21718 h -2.027386 z m 4.556398,-5.38067 c 0.766366,0 1.351591,0.15456 1.755674,0.46368 0.21012,0.15473 0.659493,1.68335 0.484558,2.8991 -0.167285,1.16258 -0.954827,2.01789 -0.954827,2.01789 l -0.303064,-0.71485 h -0.0418 c -0.243843,0.28337 -0.501622,0.48944 -0.773333,0.61825 -0.271712,0.1288 -0.644443,0.1932 -1.118197,0.1932 -0.508589,0 -0.93009,-0.13524 -1.264504,-0.40572 -0.334414,-0.27692 -0.501621,-0.69875 -0.501621,-1.26547 0,-0.56029 0.212492,-0.97245 0.637477,-1.23649 0.424985,-0.27048 1.062461,-0.41861 1.912431,-0.44437 l 0.992792,-0.0289 v -0.23184 c 0,-0.27693 -0.08012,-0.47978 -0.24036,-0.60858 -0.153273,-0.12881 -0.36925,-0.19321 -0.647928,-0.19321 -0.278678,0 -0.550389,0.0387 -0.815134,0.11592 -0.264745,0.0709 -0.529489,0.16101 -0.794234,0.27049 l -0.512071,-0.97567 c 0.306547,-0.14812 0.644444,-0.26405 1.013692,-0.34777 0.376216,-0.0837 0.766366,-0.12558 1.17045,-0.12558 z m 0.21946,2.95599 c -0.501622,0.0129 -0.84997,0.0966 -1.045044,0.25116 -0.195075,0.15456 -0.292613,0.35743 -0.292613,0.60858 0,0.21897 0.06967,0.37676 0.209009,0.47335 0.13934,0.0902 0.32048,0.13525 0.543423,0.13525 0.334414,0 0.616576,-0.0902 0.846485,-0.27048 0.22991,-0.18676 0.344865,-0.44759 0.344865,-0.78247 v -0.43471 z"
       id="text3"
       aria-label="Ta xi  RN " />
    <path
       d="m 71.390676,116.22359 -1.839277,-2.57925 h 1.766125 l 1.107747,1.68086 1.118196,-1.68086 h 1.766126 l -1.860179,2.57925 1.943782,2.69516 h -1.766125 l -1.2018,-1.80643 -1.201802,1.80643 h -1.766124 z m 6.427013,-2.57925 v 5.27441 h -1.557115 v -5.27441 z"
       style="font-weight:bold;font-size:10.0475px;font-family:'Noto Serif Bengali';-inkscape-font-specification:'Noto Serif Bengali Bold';fill:#333333;fill-opacity:1;stroke:none;stroke-width:0.619"
       id="path1-2" />
  </g>
</svg>
